<?xml version="1.0" standalone="no"?><!DOCTYPE svg PUBLIC "-//W3C//DTD SVG 1.1//EN" "http://www.w3.org/Graphics/SVG/1.1/DTD/svg11.dtd"><svg t="1536754030572" class="icon" style="" viewBox="0 0 1024 1024" version="1.1" xmlns="http://www.w3.org/2000/svg" p-id="3125" xmlns:xlink="http://www.w3.org/1999/xlink" width="200" height="200"><defs><style type="text/css"></style></defs><path d="M512 0C228.430769 0 0 228.430769 0 512s228.430769 512 512 512 512-228.430769 512-512S795.569231 0 512 0z m0 964.923077C263.876923 964.923077 59.076923 760.123077 59.076923 512S263.876923 59.076923 512 59.076923 964.923077 263.876923 964.923077 512 760.123077 964.923077 512 964.923077z" p-id="3126" fill="#2c2c2c"></path><path d="M468.676923 259.938462l-196.923077 508.061538H354.461538l47.261539-129.969231h216.615385l47.261538 129.969231H748.307692L551.384615 259.938462h-82.707692z m-43.323077 311.138461L512 342.646154l82.707692 228.430769h-169.353846z" p-id="3127" fill="#2c2c2c"></path></svg>