<?xml version="1.0" standalone="no"?><!DOCTYPE svg PUBLIC "-//W3C//DTD SVG 1.1//EN" "http://www.w3.org/Graphics/SVG/1.1/DTD/svg11.dtd"><svg t="1536753666382" class="icon" style="" viewBox="0 0 1024 1024" version="1.1" xmlns="http://www.w3.org/2000/svg" p-id="2521" xmlns:xlink="http://www.w3.org/1999/xlink" width="200" height="200"><defs><style type="text/css"></style></defs><path d="M320 170.666667c-83.2 0-149.333333 66.133333-149.333333 149.333333s66.133333 149.333333 149.333333 149.333333 149.333333-66.133333 149.333333-149.333333S403.2 170.666667 320 170.666667zM320 426.666667c-59.733333 0-106.666667-46.933333-106.666667-106.666667s46.933333-106.666667 106.666667-106.666667c59.733333 0 106.666667 46.933333 106.666667 106.666667S379.733333 426.666667 320 426.666667zM554.666667 938.666667c-14.933333 0-29.866667-2.133333-42.666667-4.266667-10.666667-2.133333-21.333333 6.4-23.466667 19.2-2.133333 10.666667 6.4 21.333333 19.2 23.466667 14.933333 2.133333 29.866667 2.133333 44.8 4.266667 0 0 0 0 2.133333 0 10.666667 0 21.333333-8.533333 21.333333-19.2C576 949.333333 565.333333 938.666667 554.666667 938.666667zM729.6 512c4.266667 2.133333 6.4 2.133333 10.666667 2.133333 6.4 0 14.933333-4.266667 19.2-10.666667 6.4-10.666667 14.933333-21.333333 23.466667-34.133333 8.533333-8.533333 6.4-23.466667-2.133333-29.866667-8.533333-8.533333-23.466667-6.4-29.866667 2.133333-10.666667 12.8-21.333333 25.6-27.733333 38.4C716.8 492.8 718.933333 505.6 729.6 512zM430.933333 915.2c-12.8-4.266667-25.6-10.666667-36.266667-17.066667-10.666667-6.4-23.466667-2.133333-29.866667 8.533333-6.4 10.666667-2.133333 23.466667 8.533333 29.866667 12.8 8.533333 27.733333 14.933333 44.8 19.2 2.133333 0 4.266667 2.133333 6.4 2.133333 8.533333 0 17.066667-6.4 19.2-14.933333C448 932.266667 441.6 919.466667 430.933333 915.2zM341.333333 832c0-10.666667-10.666667-21.333333-21.333333-21.333333-12.8 0-21.333333 8.533333-21.333333 21.333333 0 2.133333 0 12.8 6.4 27.733333 2.133333 8.533333 10.666667 14.933333 19.2 14.933333 2.133333 0 4.266667 0 6.4-2.133333 10.666667-4.266667 17.066667-17.066667 12.8-27.733333C341.333333 838.4 341.333333 832 341.333333 832zM750.933333 610.133333c-6.4-10.666667-10.666667-21.333333-10.666667-34.133333-2.133333-10.666667-10.666667-19.2-23.466667-19.2-10.666667 2.133333-19.2 12.8-19.2 23.466667 2.133333 17.066667 6.4 34.133333 17.066667 49.066667 4.266667 6.4 10.666667 10.666667 19.2 10.666667 4.266667 0 6.4 0 10.666667-2.133333C753.066667 631.466667 757.333333 618.666667 750.933333 610.133333zM853.333333 352c-12.8 8.533333-23.466667 17.066667-36.266667 27.733333-8.533333 6.4-10.666667 21.333333-2.133333 29.866667 4.266667 4.266667 10.666667 8.533333 17.066667 8.533333 4.266667 0 8.533333-2.133333 12.8-4.266667 10.666667-8.533333 23.466667-17.066667 34.133333-25.6 8.533333-6.4 12.8-19.2 4.266667-29.866667C874.666667 345.6 861.866667 343.466667 853.333333 352zM979.2 300.8c-6.4-10.666667-19.2-14.933333-27.733333-8.533333 0 0-6.4 4.266667-19.2 10.666667-10.666667 6.4-12.8 19.2-8.533333 29.866667 4.266667 6.4 10.666667 10.666667 19.2 10.666667 4.266667 0 6.4 0 10.666667-2.133333 10.666667-6.4 17.066667-10.666667 17.066667-10.666667C979.2 324.266667 983.466667 311.466667 979.2 300.8zM855.466667 776.533333c-10.666667 2.133333-19.2 12.8-17.066667 25.6 2.133333 6.4 2.133333 12.8 2.133333 19.2 0 4.266667 0 10.666667-2.133333 14.933333-2.133333 10.666667 4.266667 23.466667 17.066667 25.6 2.133333 0 2.133333 0 4.266667 0 10.666667 0 19.2-6.4 21.333333-17.066667 2.133333-8.533333 2.133333-14.933333 2.133333-23.466667 0-8.533333 0-19.2-2.133333-27.733333C878.933333 780.8 866.133333 774.4 855.466667 776.533333zM838.4 706.133333c-8.533333-12.8-19.2-23.466667-32-36.266667-8.533333-8.533333-21.333333-8.533333-29.866667 0-8.533333 8.533333-8.533333 21.333333 0 29.866667 10.666667 10.666667 19.2 21.333333 27.733333 32 4.266667 6.4 10.666667 8.533333 17.066667 8.533333 4.266667 0 8.533333-2.133333 12.8-4.266667C842.666667 727.466667 844.8 714.666667 838.4 706.133333zM682.666667 934.4c-12.8 2.133333-27.733333 4.266667-42.666667 4.266667-12.8 0-21.333333 10.666667-19.2 23.466667 0 10.666667 10.666667 19.2 21.333333 19.2 0 0 0 0 2.133333 0 14.933333 0 32-2.133333 44.8-4.266667 10.666667-2.133333 19.2-12.8 17.066667-23.466667C706.133333 940.8 695.466667 932.266667 682.666667 934.4zM320 42.666667C166.4 42.666667 42.666667 168.533333 42.666667 322.133333 42.666667 548.266667 320 768 320 768s277.333333-219.733333 277.333333-445.866667C597.333333 168.533333 473.6 42.666667 320 42.666667zM320 712.533333c-25.6-23.466667-66.133333-61.866667-106.666667-108.8C155.733333 533.333333 85.333333 426.666667 85.333333 322.133333 85.333333 192 189.866667 85.333333 320 85.333333c130.133333 0 234.666667 106.666667 234.666667 236.8C554.666667 486.4 386.133333 652.8 320 712.533333zM797.866667 893.866667c-10.666667 6.4-21.333333 12.8-34.133333 19.2-10.666667 4.266667-17.066667 17.066667-10.666667 27.733333 4.266667 8.533333 10.666667 12.8 19.2 12.8 2.133333 0 6.4 0 8.533333-2.133333 17.066667-6.4 29.866667-14.933333 42.666667-23.466667 10.666667-6.4 12.8-19.2 6.4-29.866667C821.333333 889.6 808.533333 887.466667 797.866667 893.866667z" p-id="2522" fill="#2c2c2c"></path></svg>